<svg xmlns="http://www.w3.org/2000/svg" width="24" height="24" viewBox="0 0 24 24"><g opacity="0.43"><path d="M0,0H24V24H0Z" fill="none"/><g transform="translate(4 5.709)"><rect width="13" height="10.583" rx="2" transform="translate(1.5 1)" fill="none" stroke="#21478b" stroke-linecap="round" stroke-linejoin="round" stroke-width="1"/><g transform="translate(-1.318 0.767)"><path d="M-192.508,639.385l2.446,1.917.979.695.979.7a.844.844,0,0,0,.254.119,1.052,1.052,0,0,0,.289.04,1.054,1.054,0,0,0,.289-.04.843.843,0,0,0,.253-.119l.979-.7.978-.695,2.493-1.955" transform="translate(196.904 -636.619)" fill="none" stroke="#21478b" stroke-linecap="round" stroke-linejoin="round" stroke-width="1"/></g></g></g></svg>