<svg xmlns="http://www.w3.org/2000/svg" width="24" height="24" viewBox="0 0 24 24"><path d="M0,0H24V24H0Z" fill="none"/><g transform="translate(3.152 5.018)"><rect width="17.378" height="14.147" rx="2" transform="translate(0.159 -0.092)" fill="none" stroke="#2e2e2e" stroke-linecap="round" stroke-linejoin="round" stroke-width="1"/><g transform="translate(2.268 3.241)"><path d="M-192.508,639.4l3.269,2.562,1.308.929,1.308.929a1.129,1.129,0,0,0,.339.159,1.406,1.406,0,0,0,.387.053,1.408,1.408,0,0,0,.387-.053,1.127,1.127,0,0,0,.339-.159l1.308-.929,1.308-.929,3.332-2.614" transform="translate(192.508 -639.346)" fill="none" stroke="#2e2e2e" stroke-linecap="round" stroke-linejoin="round" stroke-width="1"/></g></g></svg>