<svg xmlns="http://www.w3.org/2000/svg" width="1600" height="198.064" viewBox="0 0 1600 198.064"><g transform="translate(0 -278.937)"><path d="M-34,3247.593s117.091-1.528,208.971-23.974,0,100.557,0,100.557H-34Z" transform="translate(34 -2847.176)" fill="#fff2e1"/><path d="M228.433,3247.462s-121.574.663-219.092-23.856,0,100.065,0,100.065H228.433Z" transform="translate(1371.567 -2846.67)" fill="#fff2e1"/><path d="M144,3411v-96.449s115.719-26.136,162.361-40.665,151.086-36.437,180.376-40.745,143-22.719,266.263-19.916,0,197.381,0,197.381Z" transform="translate(47 -2934)" fill="#fff2e1"/><path d="M807.784,3411v-96.449s-115.719-26.136-162.361-40.665-151.086-36.437-180.376-40.745-143-22.719-266.263-19.916,0,197.381,0,197.381Z" transform="translate(588.108 -2934)" fill="#fff2e1"/></g></svg>